<svg width="1111" height="659" viewBox="0 0 1111 659" fill="none" xmlns="http://www.w3.org/2000/svg">
<mask id="path-1-inside-1_81_86" fill="white">
<path d="M891.28 399.147C893.976 398.734 896.723 399.439 898.886 401.1L922.518 419.246C923.17 419.747 923.758 420.326 924.268 420.971L941.787 443.099C942.261 443.698 942.665 444.349 942.99 445.04L954.044 468.474C954.674 469.808 955 471.265 955 472.74V499.5L952.077 543.343C952.026 544.112 951.886 544.872 951.66 545.608L943.134 573.43C942.716 574.794 942.011 576.053 941.066 577.122L924.55 595.812C923.854 596.599 923.039 597.272 922.134 597.805L902.857 609.165C898.62 611.662 896.827 616.869 898.63 621.445L899.504 623.665C901.01 627.488 904.7 630 908.809 630H929.5L957.625 629.078C959.187 629.027 960.714 628.61 962.086 627.862L962.429 627.675C964.417 626.59 965.979 624.863 966.857 622.776L968.378 619.165C969.098 617.455 970.453 616.092 972.158 615.361C974.792 614.232 976.5 611.642 976.5 608.776V599.249C976.5 596.213 978.679 593.615 981.669 593.088C983.748 592.721 985.501 591.331 986.332 589.391L986.835 588.218C987.59 586.456 987.736 584.494 987.251 582.64L983.18 567.097C982.735 565.396 982.746 563.607 983.212 561.912L988 544.5L1000 489.5L1003.36 474.048C1004.35 469.491 1010.83 469.45 1011.88 473.994C1011.96 474.33 1012.08 474.656 1012.23 474.965L1017.5 485.5L1027.09 501.021C1027.69 502 1028.12 503.075 1028.36 504.201L1031.26 517.873C1031.42 518.622 1031.49 519.387 1031.48 520.152L1030.03 591.037C1030.01 592.007 1029.85 592.969 1029.55 593.893L1026.42 603.65C1025.82 605.509 1024.69 607.153 1023.17 608.378L1007.5 621L992.63 632.265C991.554 633.08 990.655 634.104 989.986 635.275L988.971 637.051C986.65 641.113 987.456 646.242 990.911 649.397L993.636 651.885C995.478 653.567 997.883 654.5 1000.38 654.5H1032.57C1033.19 654.5 1033.81 654.443 1034.41 654.329L1054.22 650.614C1056.35 650.216 1058.29 649.138 1059.75 647.543L1061.16 646.004C1062.37 644.692 1063.2 643.082 1063.57 641.342L1066 630L1067.67 614.976C1067.87 613.168 1069.12 611.65 1070.86 611.107C1073.55 610.264 1074.85 607.208 1073.59 604.682L1067.17 591.84C1066.4 590.306 1066.04 588.6 1066.13 586.887L1068 548L1071 470.5L1072.5 457.5L1076 444L1078.87 421.017C1078.96 420.341 1078.97 419.658 1078.92 418.979L1078.17 409.663C1078.06 408.237 1077.64 406.853 1076.95 405.604L1073 398.5L1059.19 376.597C1058.73 375.869 1058.37 375.084 1058.11 374.263L1048.04 342.209C1047.68 341.079 1047.53 339.894 1047.59 338.711L1048.96 311.271C1048.99 310.758 1049.05 310.247 1049.16 309.744L1055 281.5C1056.81 275.005 1066.25 275.768 1067 282.469L1068 291.5L1074.5 332L1081.5 363.5L1084.38 388.442C1084.46 389.145 1084.47 389.855 1084.4 390.56L1082.5 410L1081.52 448.737C1081.51 449.245 1081.53 449.753 1081.6 450.257L1084.28 471.244C1084.42 472.406 1084.78 473.532 1085.31 474.572L1090.96 485.484C1091.6 486.722 1092.88 487.5 1094.27 487.5C1096.33 487.5 1098 485.83 1098 483.77V471.402C1098 470.802 1098.05 470.203 1098.16 469.613L1099.73 460.97C1099.91 459.995 1100.23 459.053 1100.69 458.172L1107.25 445.462C1107.75 444.494 1108.08 443.451 1108.25 442.373L1110.26 429.054C1110.42 428.024 1110.41 426.977 1110.25 425.949L1107.19 407.189C1107.07 406.399 1106.84 405.628 1106.53 404.891L1100.56 390.817C1100.19 389.943 1099.94 389.022 1099.83 388.08L1094 338.5L1083.12 250.467C1083.04 249.824 1083.02 249.174 1083.07 248.528L1089 165.5V132.118C1089 131.375 1088.92 130.634 1088.75 129.91L1083.37 106.154C1083.13 105.059 1082.7 104.014 1082.1 103.062L1069.01 82.1213C1068.34 81.0501 1067.48 80.1155 1066.46 79.3669L1042.58 61.7966C1041.86 61.2679 1041.08 60.8377 1040.25 60.5175L1010.73 49.1665C1009.59 48.7259 1008.37 48.5 1007.14 48.5H971.13C970.379 48.5 969.631 48.4154 968.899 48.2479L929.601 39.2521C928.869 39.0846 928.121 39 927.37 39H865.762C865.255 39 864.748 39.0386 864.247 39.1154L803.753 48.3846C803.252 48.4614 802.745 48.5 802.238 48.5H773.511C772.839 48.5 772.168 48.4322 771.509 48.2976L726.991 39.2024C726.332 39.0678 725.661 39 724.989 39H611L530.5 43.5L465.5 39L369.928 24.2208C368.981 24.0744 368.018 24.0648 367.068 24.1923L301.5 33H248.5L216.529 29.8809C211.407 29.3811 207.5 25.0749 207.5 19.9281V5.16712C207.5 4.40276 207.297 3.6521 206.912 2.99187C205.458 0.499915 202.016 0.107528 200.039 2.20834L196 6.5L186.016 15.2858C184.383 16.7227 182.327 17.588 180.158 17.7507L167.183 18.7238C164.806 18.902 162.444 18.2254 160.522 16.8158L158.64 15.4359C156.925 14.1782 154.853 13.5 152.726 13.5H138.5L114.865 11.6092C113.959 11.5367 113.048 11.5881 112.156 11.7619L75.9474 18.8155C75.3174 18.9382 74.6771 19 74.0353 19H49.1244C47.4041 19 45.7129 18.5562 44.2142 17.7115L30.9828 10.2538C26.2592 7.59142 20.5836 11.6808 21.614 17.0043C21.8652 18.3024 22.5148 19.49 23.4723 20.4019L40.9973 37.0924C42.308 38.3407 43.9329 39.2098 45.6987 39.6072L59.3001 42.6675C61.3162 43.1211 62.5461 45.1653 62.0023 47.159C61.688 48.3114 60.8263 49.2351 59.6985 49.6285L41.9335 55.8256C40.6579 56.2706 39.4857 56.9694 38.4876 57.8799L17.632 76.9061C14.0767 80.1495 13.342 85.4751 15.8751 89.567C17.2366 91.7665 19.4005 93.3575 21.9068 93.9974L34.3677 97.1789C38.61 98.2621 41.6543 101.979 41.8805 106.352L42.8712 125.506C42.9559 127.143 42.6366 128.777 41.9415 130.262L32.5123 150.406C32.1722 151.133 31.9207 151.898 31.7634 152.684L27.5095 173.954C27.1755 175.623 26.4206 177.18 25.3163 178.477L5.9878 201.168C5.37629 201.886 4.86939 202.686 4.48219 203.546L0.881823 211.542C0.300569 212.833 0 214.232 0 215.648V227.887C0 229.6 0.440282 231.285 1.27861 232.779L10.9756 250.065C11.3244 250.687 11.7386 251.269 12.2112 251.803L25.3027 266.583C26.4164 267.841 27.829 268.797 29.4099 269.365L44.2625 274.697C45.7338 275.225 47.3085 275.401 48.8601 275.21L73.6717 272.163C74.5534 272.055 75.4169 271.83 76.2391 271.493L95.3297 263.683C96.4343 263.231 97.6109 262.981 98.8037 262.944L143.49 261.547C144.491 261.516 145.482 261.334 146.429 261.009L159.42 256.543C160.466 256.184 161.565 256 162.671 256H188.5L197.229 257.047C199.658 257.339 201.897 258.511 203.52 260.342L244 306L277 346.5L290.5 362L323.5 399.5L352.167 424.468C353.687 425.792 354.771 427.544 355.278 429.495L364.257 464.063C364.419 464.686 364.52 465.324 364.559 465.966L366 489.5L367.813 502.645C367.937 503.544 368.183 504.422 368.544 505.255L373.759 517.291C374.249 518.42 374.526 519.631 374.575 520.862L376 556V577.754C376 578.251 375.963 578.747 375.889 579.238L374.656 587.458C374.552 588.151 374.376 588.831 374.13 589.486L371.026 597.764C370.356 599.551 369.189 601.108 367.663 602.253L366 603.5L354.639 609.862C353.883 610.286 353.185 610.805 352.563 611.408L337.605 625.914C337.202 626.304 336.833 626.727 336.502 627.179L332.187 633.063C331.741 633.672 331.5 634.407 331.5 635.162C331.5 637.038 332.959 638.59 334.831 638.706L363.671 640.486C367.189 640.703 369.013 644.784 366.829 647.55C365.49 649.246 365.593 651.666 367.071 653.242L369.489 655.822C371.091 657.53 373.329 658.5 375.671 658.5H397H421.139C422.692 658.5 424.223 658.139 425.611 657.444L426.713 656.893C429.704 655.398 431.749 652.507 432.164 649.189L433.336 639.81C433.445 638.94 433.667 638.089 433.998 637.277L438.17 627.037C438.717 625.695 439.549 624.488 440.608 623.499L443.467 620.831C445.409 619.019 446.55 616.508 446.638 613.853L448.5 558L449.887 533.964C449.962 532.667 450.288 531.397 450.849 530.225L460.021 511.046C460.666 509.699 461 508.225 461 506.732V470.5L464.137 447.364C464.663 443.487 467.402 440.272 471.146 439.137L481.5 436L515.5 426.5L561.173 419.625C561.723 419.542 562.28 419.505 562.837 419.515L589.342 419.98C590.111 419.993 590.877 420.095 591.623 420.284L628 429.5L671.504 443.518C672.495 443.837 673.53 444 674.571 444H733.574C734.846 444 736.107 443.757 737.288 443.285L819.435 410.426C820.143 410.143 820.88 409.942 821.634 409.826L891.28 399.147Z"/>
</mask>
<path d="M891.28 399.147C893.976 398.734 896.723 399.439 898.886 401.1L922.518 419.246C923.17 419.747 923.758 420.326 924.268 420.971L941.787 443.099C942.261 443.698 942.665 444.349 942.99 445.04L954.044 468.474C954.674 469.808 955 471.265 955 472.74V499.5L952.077 543.343C952.026 544.112 951.886 544.872 951.66 545.608L943.134 573.43C942.716 574.794 942.011 576.053 941.066 577.122L924.55 595.812C923.854 596.599 923.039 597.272 922.134 597.805L902.857 609.165C898.62 611.662 896.827 616.869 898.63 621.445L899.504 623.665C901.01 627.488 904.7 630 908.809 630H929.5L957.625 629.078C959.187 629.027 960.714 628.61 962.086 627.862L962.429 627.675C964.417 626.59 965.979 624.863 966.857 622.776L968.378 619.165C969.098 617.455 970.453 616.092 972.158 615.361C974.792 614.232 976.5 611.642 976.5 608.776V599.249C976.5 596.213 978.679 593.615 981.669 593.088C983.748 592.721 985.501 591.331 986.332 589.391L986.835 588.218C987.59 586.456 987.736 584.494 987.251 582.64L983.18 567.097C982.735 565.396 982.746 563.607 983.212 561.912L988 544.5L1000 489.5L1003.36 474.048C1004.35 469.491 1010.83 469.45 1011.88 473.994C1011.96 474.33 1012.08 474.656 1012.23 474.965L1017.5 485.5L1027.09 501.021C1027.69 502 1028.12 503.075 1028.36 504.201L1031.26 517.873C1031.42 518.622 1031.49 519.387 1031.48 520.152L1030.03 591.037C1030.01 592.007 1029.85 592.969 1029.55 593.893L1026.42 603.65C1025.82 605.509 1024.69 607.153 1023.17 608.378L1007.5 621L992.63 632.265C991.554 633.08 990.655 634.104 989.986 635.275L988.971 637.051C986.65 641.113 987.456 646.242 990.911 649.397L993.636 651.885C995.478 653.567 997.883 654.5 1000.38 654.5H1032.57C1033.19 654.5 1033.81 654.443 1034.41 654.329L1054.22 650.614C1056.35 650.216 1058.29 649.138 1059.75 647.543L1061.16 646.004C1062.37 644.692 1063.2 643.082 1063.57 641.342L1066 630L1067.67 614.976C1067.87 613.168 1069.12 611.65 1070.86 611.107C1073.55 610.264 1074.85 607.208 1073.59 604.682L1067.17 591.84C1066.4 590.306 1066.04 588.6 1066.13 586.887L1068 548L1071 470.5L1072.5 457.5L1076 444L1078.87 421.017C1078.96 420.341 1078.97 419.658 1078.92 418.979L1078.17 409.663C1078.06 408.237 1077.64 406.853 1076.95 405.604L1073 398.5L1059.19 376.597C1058.73 375.869 1058.37 375.084 1058.11 374.263L1048.04 342.209C1047.68 341.079 1047.53 339.894 1047.59 338.711L1048.96 311.271C1048.99 310.758 1049.05 310.247 1049.16 309.744L1055 281.5C1056.81 275.005 1066.25 275.768 1067 282.469L1068 291.5L1074.5 332L1081.5 363.5L1084.38 388.442C1084.46 389.145 1084.47 389.855 1084.4 390.56L1082.5 410L1081.52 448.737C1081.51 449.245 1081.53 449.753 1081.6 450.257L1084.28 471.244C1084.42 472.406 1084.78 473.532 1085.31 474.572L1090.96 485.484C1091.6 486.722 1092.88 487.5 1094.27 487.5C1096.33 487.5 1098 485.83 1098 483.77V471.402C1098 470.802 1098.05 470.203 1098.16 469.613L1099.73 460.97C1099.91 459.995 1100.23 459.053 1100.69 458.172L1107.25 445.462C1107.75 444.494 1108.08 443.451 1108.25 442.373L1110.26 429.054C1110.42 428.024 1110.41 426.977 1110.25 425.949L1107.19 407.189C1107.07 406.399 1106.84 405.628 1106.53 404.891L1100.56 390.817C1100.19 389.943 1099.94 389.022 1099.83 388.08L1094 338.5L1083.12 250.467C1083.04 249.824 1083.02 249.174 1083.07 248.528L1089 165.5V132.118C1089 131.375 1088.92 130.634 1088.75 129.91L1083.37 106.154C1083.13 105.059 1082.7 104.014 1082.1 103.062L1069.01 82.1213C1068.34 81.0501 1067.48 80.1155 1066.46 79.3669L1042.58 61.7966C1041.86 61.2679 1041.08 60.8377 1040.25 60.5175L1010.73 49.1665C1009.59 48.7259 1008.37 48.5 1007.14 48.5H971.13C970.379 48.5 969.631 48.4154 968.899 48.2479L929.601 39.2521C928.869 39.0846 928.121 39 927.37 39H865.762C865.255 39 864.748 39.0386 864.247 39.1154L803.753 48.3846C803.252 48.4614 802.745 48.5 802.238 48.5H773.511C772.839 48.5 772.168 48.4322 771.509 48.2976L726.991 39.2024C726.332 39.0678 725.661 39 724.989 39H611L530.5 43.5L465.5 39L369.928 24.2208C368.981 24.0744 368.018 24.0648 367.068 24.1923L301.5 33H248.5L216.529 29.8809C211.407 29.3811 207.5 25.0749 207.5 19.9281V5.16712C207.5 4.40276 207.297 3.6521 206.912 2.99187C205.458 0.499915 202.016 0.107528 200.039 2.20834L196 6.5L186.016 15.2858C184.383 16.7227 182.327 17.588 180.158 17.7507L167.183 18.7238C164.806 18.902 162.444 18.2254 160.522 16.8158L158.64 15.4359C156.925 14.1782 154.853 13.5 152.726 13.5H138.5L114.865 11.6092C113.959 11.5367 113.048 11.5881 112.156 11.7619L75.9474 18.8155C75.3174 18.9382 74.6771 19 74.0353 19H49.1244C47.4041 19 45.7129 18.5562 44.2142 17.7115L30.9828 10.2538C26.2592 7.59142 20.5836 11.6808 21.614 17.0043C21.8652 18.3024 22.5148 19.49 23.4723 20.4019L40.9973 37.0924C42.308 38.3407 43.9329 39.2098 45.6987 39.6072L59.3001 42.6675C61.3162 43.1211 62.5461 45.1653 62.0023 47.159C61.688 48.3114 60.8263 49.2351 59.6985 49.6285L41.9335 55.8256C40.6579 56.2706 39.4857 56.9694 38.4876 57.8799L17.632 76.9061C14.0767 80.1495 13.342 85.4751 15.8751 89.567C17.2366 91.7665 19.4005 93.3575 21.9068 93.9974L34.3677 97.1789C38.61 98.2621 41.6543 101.979 41.8805 106.352L42.8712 125.506C42.9559 127.143 42.6366 128.777 41.9415 130.262L32.5123 150.406C32.1722 151.133 31.9207 151.898 31.7634 152.684L27.5095 173.954C27.1755 175.623 26.4206 177.18 25.3163 178.477L5.9878 201.168C5.37629 201.886 4.86939 202.686 4.48219 203.546L0.881823 211.542C0.300569 212.833 0 214.232 0 215.648V227.887C0 229.6 0.440282 231.285 1.27861 232.779L10.9756 250.065C11.3244 250.687 11.7386 251.269 12.2112 251.803L25.3027 266.583C26.4164 267.841 27.829 268.797 29.4099 269.365L44.2625 274.697C45.7338 275.225 47.3085 275.401 48.8601 275.21L73.6717 272.163C74.5534 272.055 75.4169 271.83 76.2391 271.493L95.3297 263.683C96.4343 263.231 97.6109 262.981 98.8037 262.944L143.49 261.547C144.491 261.516 145.482 261.334 146.429 261.009L159.42 256.543C160.466 256.184 161.565 256 162.671 256H188.5L197.229 257.047C199.658 257.339 201.897 258.511 203.52 260.342L244 306L277 346.5L290.5 362L323.5 399.5L352.167 424.468C353.687 425.792 354.771 427.544 355.278 429.495L364.257 464.063C364.419 464.686 364.52 465.324 364.559 465.966L366 489.5L367.813 502.645C367.937 503.544 368.183 504.422 368.544 505.255L373.759 517.291C374.249 518.42 374.526 519.631 374.575 520.862L376 556V577.754C376 578.251 375.963 578.747 375.889 579.238L374.656 587.458C374.552 588.151 374.376 588.831 374.13 589.486L371.026 597.764C370.356 599.551 369.189 601.108 367.663 602.253L366 603.5L354.639 609.862C353.883 610.286 353.185 610.805 352.563 611.408L337.605 625.914C337.202 626.304 336.833 626.727 336.502 627.179L332.187 633.063C331.741 633.672 331.5 634.407 331.5 635.162C331.5 637.038 332.959 638.59 334.831 638.706L363.671 640.486C367.189 640.703 369.013 644.784 366.829 647.55C365.49 649.246 365.593 651.666 367.071 653.242L369.489 655.822C371.091 657.53 373.329 658.5 375.671 658.5H397H421.139C422.692 658.5 424.223 658.139 425.611 657.444L426.713 656.893C429.704 655.398 431.749 652.507 432.164 649.189L433.336 639.81C433.445 638.94 433.667 638.089 433.998 637.277L438.17 627.037C438.717 625.695 439.549 624.488 440.608 623.499L443.467 620.831C445.409 619.019 446.55 616.508 446.638 613.853L448.5 558L449.887 533.964C449.962 532.667 450.288 531.397 450.849 530.225L460.021 511.046C460.666 509.699 461 508.225 461 506.732V470.5L464.137 447.364C464.663 443.487 467.402 440.272 471.146 439.137L481.5 436L515.5 426.5L561.173 419.625C561.723 419.542 562.28 419.505 562.837 419.515L589.342 419.98C590.111 419.993 590.877 420.095 591.623 420.284L628 429.5L671.504 443.518C672.495 443.837 673.53 444 674.571 444H733.574C734.846 444 736.107 443.757 737.288 443.285L819.435 410.426C820.143 410.143 820.88 409.942 821.634 409.826L891.28 399.147Z" fill="hsl(22.5000 21.0526% 92.5490%)" stroke="black" stroke-width="10" mask="url(#path-1-inside-1_81_86)"/>
</svg>
